<?xml version="1.0" encoding="utf-8"?>
<!-- Generator: Adobe Illustrator 18.0.0, SVG Export Plug-In . SVG Version: 6.00 Build 0)  -->
<!DOCTYPE svg PUBLIC "-//W3C//DTD SVG 1.1//EN" "http://www.w3.org/Graphics/SVG/1.1/DTD/svg11.dtd">
<svg version="1.1" id="Layer_1" xmlns="http://www.w3.org/2000/svg" xmlns:xlink="http://www.w3.org/1999/xlink" x="0px" y="0px"
	 viewBox="0 266.5 612 297.9" enable-background="new 0 266.5 612 297.9" xml:space="preserve">
<g>
	<path fill="#5D5D5D" d="M605,396.2v7v11.1c-4.1-6.3-9.2-11.5-15.5-15.2l-3.7,6.3c5.9,3.3,10.7,8.5,14,14c3.3,5.9,5.2,12.9,5.2,20
		c0,21.8-17.7,39.5-39.5,39.5c-21.8,0-39.5-17.7-39.5-39.5c0-7,1.8-13.7,5.2-20c3.3-5.9,8.1-10.7,14-14l-3.7-6.3
		c-7,4.1-12.6,10-16.6,16.6c-4.1,7-6.3,15.2-6.3,23.3c0,25.9,21.1,46.9,46.9,46.9c16.6,0,31.4-8.9,39.5-21.8v18.1h7v-79.1v-7H605z"
		/>
	<path fill="#5D5D5D" d="M372.5,405.1c5.9-3.3,12.9-5.2,20-5.2s13.7,1.8,20,5.2c5.9,3.3,10.7,8.1,14,14l6.3-3.7
		c-4.1-7-10-12.6-16.6-16.6c-7-4.1-15.2-6.3-23.3-6.3c-8.1,0-16.3,2.2-23.3,6.3c-7,4.1-12.6,9.6-16.6,16.6l6.3,3.7
		C361.8,413.2,366.6,408.4,372.5,405.1z"/>
	<path fill="#5D5D5D" d="M439,435.7H360v7h71.7c-1.8,20.3-18.8,35.8-39.5,35.8c-7,0-13.7-1.8-20-5.2c-5.9-3.3-10.7-8.1-14-14
		l-6.3,3.7c4.1,7,10,12.6,16.6,16.6c7,4.1,15.2,6.3,23.3,6.3c25.9,0,46.9-21.1,46.9-46.9v-3.3H439z"/>
	<path fill="#5D5D5D" d="M46.9,399.9c13.3,0,26.2-5.9,35.1-15.9l-5.5-4.8c-7.4,8.5-18.5,13.3-29.6,13.3c-21.8,0-39.5-17.7-39.5-39.5
		v-86.5h-7v86.5C0,378.8,21.1,399.9,46.9,399.9z"/>
	<rect x="14.4" y="306" fill="#5D5D5D" width="35.8" height="7"/>
	<path fill="#5D5D5D" d="M70.6,399.1l-3.7,6.3c5.5,3.3,10.3,8.1,13.7,13.7l6.3-3.7C83.2,408.8,77.2,403.2,70.6,399.1z"/>
	<path fill="#5D5D5D" d="M66.5,473.4c-5.9,3.3-12.9,5.2-20,5.2C24.8,478.6,7,460.9,7,439.1l0,0c0-7,1.8-13.7,5.2-20
		c3.3-5.9,8.1-10.7,14-14l-3.7-6.3c-6.3,3.7-11.8,8.9-15.5,15.2v-18.1H0v43.2l0,0l0,0v86.5h7v-61.3c8.1,13.3,22.9,21.8,39.5,21.8
		c8.1,0,16.3-2.2,23.3-6.3c7-4.1,12.6-9.6,16.6-16.6l-6.3-3.7C77.2,465.3,72.4,470.1,66.5,473.4z"/>
	<path fill="#5D5D5D" d="M184.4,408.4l5.5,4.8c2.6-3,5.9-5.9,9.6-7.8l-3.7-6.3C191.4,401.7,187.7,404.7,184.4,408.4z"/>
	<path fill="#5D5D5D" d="M260.2,415.8c-4.1-7-9.6-12.6-16.6-16.6l-3.7,6.3c5.9,3.3,10.7,8.5,14,14c3.3,5.9,5.2,12.9,5.2,20
		c0,21.8-17.7,39.5-39.5,39.5c-11.5,0-22.2-4.8-29.6-13.3l-5.5,4.8c8.9,10,21.8,15.9,35.1,15.9c25.9,0,46.9-21.1,46.9-46.9
		C266.5,430.9,264.2,422.8,260.2,415.8z"/>
	<path fill="#5D5D5D" d="M326,473.4c-5.9,3.3-12.9,5.2-20,5.2c-7,0-13.7-1.8-20-5.2c-5.9-3.3-10.7-8.1-14-14l-6.3,3.7
		c4.1,7,10,12.6,16.6,16.6c7,4.1,15.2,6.3,23.3,6.3c8.1,0,16.3-2.2,23.3-6.3c7-4.1,12.6-9.6,16.6-16.6l-6.3-3.7
		C336.7,465.3,331.5,470.1,326,473.4z"/>
	<path fill="#5D5D5D" d="M352.9,439.4c0-8.5-2.2-16.6-6.7-24c-7-11.8-18.8-20-32.5-22.2l-1.1,7c11.5,1.8,21.4,8.9,27.3,18.8
		c3,5.2,4.8,10.7,5.5,16.6h-71.7v7h79.1L352.9,439.4L352.9,439.4z"/>
	<path fill="#5D5D5D" d="M285.7,405.4c0.4,0,0.4-0.4,0.7-0.4l-3.7-6.3c-0.4,0-0.7,0.4-0.7,0.4c-6.7,4.1-12.2,9.6-16.3,16.3l6.3,3.7
		C275.3,413.6,280.1,408.8,285.7,405.4z"/>
	<path fill="#5D5D5D" d="M498.5,473.4c-5.9,3.3-12.9,5.2-20,5.2c-7,0-13.7-1.8-20-5.2c-5.9-3.3-10.7-8.1-14-14l-6.3,3.7
		c4.1,6.7,10,12.6,16.6,16.6c7,4.1,15.2,6.3,23.3,6.3c8.1,0,16.3-2.2,23.3-6.3c7-4.1,12.6-9.6,16.6-16.6l-6.3-3.7
		C509.3,465.3,504.5,470.1,498.5,473.4z"/>
	<path fill="#5D5D5D" d="M433.5,427.6l7,1.8c2.6-10,9.2-18.8,18.1-24l-3.7-6.3C444.2,405.4,436.5,415.8,433.5,427.6z"/>
	<path fill="#5D5D5D" d="M502.6,399.1l-3.7,6.3c5.5,3.3,10.3,8.1,13.7,13.7l6.3-3.7C515.2,408.8,509.3,403.2,502.6,399.1z"/>
	<path fill="#5D5D5D" d="M243.2,393.6c7-4.1,12.6-9.6,16.6-16.6l-6.3-3.7c-3.3,5.9-8.5,10.7-14,14c-5.9,3.3-12.9,5.2-20,5.2
		c-11.5,0-22.2-4.8-29.6-13.3l-5.5,4.8c8.9,10,21.8,15.9,35.1,15.9C228,399.9,235.8,397.7,243.2,393.6z"/>
	<path fill="#5D5D5D" d="M199.9,318.6c5.9-3.3,12.9-5.2,20-5.2c11.5,0,22.2,4.8,29.6,13.3l5.5-4.8c-8.9-10-21.8-15.9-35.1-15.9
		c-8.1,0-16.3,2.2-23.3,6.3c-7,4.1-12.6,9.6-16.6,16.6l6.3,3.7C188.8,326.7,194,321.9,199.9,318.6z"/>
	<path fill="#5D5D5D" d="M306,399.9v-7c-21.8,0-39.5-17.7-39.5-39.5c0-21.8,17.7-39.5,39.5-39.5c21.8,0,39.5,17.7,39.5,39.5v43.2h7
		v-43.2l0,0c0-21.8,17.7-39.5,39.5-39.5c21.8,0,39.5,17.7,39.5,39.5v43.2h7v-43.2c0-25.9-21.1-46.9-46.9-46.9
		c-19.6,0-36.2,11.8-43.2,28.8c-7-17-23.7-28.8-43.2-28.8c-16.6,0-31.4,8.9-39.5,21.8v-18.5h-7v43.2
		C259.1,378.8,280.1,399.9,306,399.9z"/>
	<path fill="#5D5D5D" d="M93.5,352.9c0-21.8,17.7-39.5,39.5-39.5c21.8,0,39.5,17.7,39.5,39.5v43.2h7v-43.2
		c0-25.9-21.1-46.9-46.9-46.9c-16.6,0-31.4,8.9-39.5,21.8v-61.3h-7v129.7h7v-43.2H93.5z"/>
	<path fill="#5D5D5D" d="M180,482.7v-43.2l0,0l0,0v-35.8h-7v11.1c-8.1-13.3-22.9-21.8-39.5-21.8c-25.9,0-46.9,21.1-46.9,46.9
		s21.1,46.9,46.9,46.9c16.6,0,31.4-8.9,39.5-21.8V483h7V482.7z M133,479c-21.8,0-39.5-17.7-39.5-39.5c0-21.8,17.7-39.5,39.5-39.5
		s39.5,17.7,39.5,39.5l0,0C172.6,461.2,154.8,479,133,479z"/>
	<path fill="#5D5D5D" d="M459,318.6c5.9-3.3,12.9-5.2,20-5.2c21.8,0,39.5,17.7,39.5,39.5l0,0c0,21.8-17.7,39.5-39.5,39.5
		c-11.5,0-22.2-4.8-29.6-13.3l-5.5,4.8c8.9,10,21.8,15.9,35.1,15.9c16.6,0,31.4-8.9,39.5-21.8v18.1h7v-43.2l0,0l0,0v-43.2h-7v18.1
		c-8.1-13.3-22.9-21.8-39.5-21.8c-8.1,0-16.3,2.2-23.3,6.3c-7,4.1-12.6,9.6-16.6,16.6l6.3,3.7C448.3,326.7,453.1,321.9,459,318.6z"
		/>
	<rect x="173" y="489.7" fill="#5D5D5D" width="7" height="35.8"/>
	<rect x="173" y="489.7" fill="#5D5D5D" width="7" height="35.8"/>
	<path fill="#5D5D5D" d="M565.1,313.4c7,0,13.7,1.8,20,5.2c5.9,3.3,10.7,8.1,14,14l6.3-3.7c-4.1-6.7-10-12.6-16.6-16.6
		c-7-4.1-15.2-6.3-23.3-6.3c-13.3,0-26.2,5.9-35.1,15.9l5.5,4.8C542.9,318.2,554,313.4,565.1,313.4z"/>
	<path fill="#5D5D5D" d="M565.1,392.5c-11.5,0-22.2-4.8-29.6-13.3L530,384c8.9,10,21.8,15.9,35.1,15.9c25.9,0,46.9-21.1,46.9-46.9
		v-3.7h-79.1v7h71.7C602.8,376.6,585.8,392.5,565.1,392.5z"/>
</g>
<g>
	<path fill="#5D5D5D" d="M18.6,564.2h-2.7c-0.3,0-0.6-0.1-0.8-0.2c-0.2-0.2-0.3-0.3-0.4-0.6l-1.4-3.9H5.4l-1.4,3.9
		c-0.1,0.2-0.2,0.4-0.4,0.6c-0.2,0.2-0.5,0.3-0.8,0.3H0l7.5-19.1h3.6L18.6,564.2z M12.4,557l-2.3-6.3c-0.1-0.3-0.2-0.6-0.4-1
		c-0.1-0.4-0.2-0.8-0.4-1.3c-0.1,0.4-0.2,0.9-0.4,1.3s-0.2,0.7-0.4,1L6.3,557H12.4z"/>
	<path fill="#5D5D5D" d="M50,545.1v19.1h-1.8c-0.3,0-0.5,0-0.7-0.1c-0.2-0.1-0.4-0.2-0.5-0.5l-10-12.7c0.1,0.6,0.1,1.1,0.1,1.6v11.7
		h-3.1v-19.1h1.9c0.1,0,0.3,0,0.4,0c0.1,0,0.2,0,0.3,0.1c0.1,0,0.2,0.1,0.2,0.2c0.1,0.1,0.2,0.2,0.3,0.3l10,12.8
		c0-0.3,0-0.6-0.1-0.9c0-0.3,0-0.6,0-0.8v-11.6H50z"/>
	<path fill="#5D5D5D" d="M90.6,564.2H87v-19.1h3.6V564.2z"/>
	<path fill="#5D5D5D" d="M124.2,545.1v19.1h-1.8c-0.3,0-0.5,0-0.7-0.1c-0.2-0.1-0.4-0.2-0.5-0.5l-10-12.7c0.1,0.6,0.1,1.1,0.1,1.6
		v11.7h-3.1v-19.1h1.9c0.1,0,0.3,0,0.4,0c0.1,0,0.2,0,0.3,0.1c0.1,0,0.2,0.1,0.2,0.2c0.1,0.1,0.2,0.2,0.3,0.3l10,12.8
		c0-0.3,0-0.6-0.1-0.9c0-0.3,0-0.6,0-0.8v-11.6H124.2z"/>
	<path fill="#5D5D5D" d="M157.8,545.1v19.1h-1.8c-0.3,0-0.5,0-0.7-0.1c-0.2-0.1-0.4-0.2-0.5-0.5l-10-12.7c0.1,0.6,0.1,1.1,0.1,1.6
		v11.7h-3.1v-19.1h1.9c0.1,0,0.3,0,0.4,0c0.1,0,0.2,0,0.3,0.1c0.1,0,0.2,0.1,0.2,0.2c0.1,0.1,0.2,0.2,0.3,0.3l10,12.8
		c0-0.3,0-0.6-0.1-0.9c0-0.3,0-0.6,0-0.8v-11.6H157.8z"/>
	<path fill="#5D5D5D" d="M193.5,554.7c0,1.4-0.2,2.7-0.7,3.9c-0.5,1.2-1.1,2.2-2,3.1c-0.8,0.9-1.9,1.6-3,2c-1.2,0.5-2.5,0.7-4,0.7
		c-1.4,0-2.8-0.2-3.9-0.7c-1.2-0.5-2.2-1.2-3.1-2c-0.8-0.9-1.5-1.9-2-3.1c-0.5-1.2-0.7-2.5-0.7-3.9s0.2-2.7,0.7-3.9
		c0.5-1.2,1.1-2.2,2-3.1c0.8-0.9,1.9-1.5,3.1-2c1.2-0.5,2.5-0.7,3.9-0.7c1,0,1.9,0.1,2.7,0.3c0.9,0.2,1.6,0.5,2.3,0.9
		c0.7,0.4,1.4,0.9,1.9,1.5c0.6,0.6,1,1.2,1.4,2c0.4,0.7,0.7,1.5,0.9,2.3C193.4,552.8,193.5,553.7,193.5,554.7z M189.9,554.7
		c0-1-0.1-2-0.4-2.8c-0.3-0.8-0.7-1.5-1.2-2.1c-0.5-0.6-1.1-1-1.9-1.3c-0.7-0.3-1.6-0.5-2.5-0.5c-0.9,0-1.8,0.2-2.5,0.5
		c-0.7,0.3-1.4,0.8-1.9,1.3c-0.5,0.6-0.9,1.3-1.2,2.1c-0.3,0.8-0.4,1.8-0.4,2.8c0,1,0.1,2,0.4,2.8c0.3,0.8,0.7,1.5,1.2,2.1
		c0.5,0.6,1.2,1,1.9,1.3c0.7,0.3,1.6,0.5,2.5,0.5c0.9,0,1.8-0.2,2.5-0.5c0.7-0.3,1.4-0.8,1.9-1.3c0.5-0.6,0.9-1.3,1.2-2.1
		C189.8,556.7,189.9,555.7,189.9,554.7z"/>
	<path fill="#5D5D5D" d="M225.5,545.1l-7.7,19.1h-3.2l-7.7-19.1h2.8c0.3,0,0.6,0.1,0.8,0.2c0.2,0.2,0.3,0.3,0.4,0.6l4.5,11.6
		c0.1,0.4,0.3,0.8,0.4,1.2c0.1,0.5,0.3,0.9,0.4,1.4c0.1-0.5,0.2-1,0.3-1.4c0.1-0.5,0.3-0.9,0.4-1.2l4.5-11.6
		c0.1-0.2,0.2-0.4,0.4-0.6c0.2-0.2,0.5-0.3,0.8-0.3H225.5z"/>
	<path fill="#5D5D5D" d="M255.7,564.2h-2.7c-0.3,0-0.6-0.1-0.8-0.2c-0.2-0.2-0.3-0.3-0.4-0.6l-1.4-3.9h-7.9l-1.4,3.9
		c-0.1,0.2-0.2,0.4-0.4,0.6c-0.2,0.2-0.5,0.3-0.8,0.3h-2.8l7.5-19.1h3.6L255.7,564.2z M249.4,557l-2.3-6.3c-0.1-0.3-0.2-0.6-0.4-1
		c-0.1-0.4-0.2-0.8-0.4-1.3c-0.1,0.4-0.2,0.9-0.4,1.3c-0.1,0.4-0.2,0.7-0.4,1l-2.3,6.3H249.4z"/>
	<path fill="#5D5D5D" d="M282.3,548h-5.7v16.2H273V548h-5.7v-2.9h15V548z"/>
	<path fill="#5D5D5D" d="M301.4,564.2h-3.6v-19.1h3.6V564.2z"/>
	<path fill="#5D5D5D" d="M335.3,545.1l-7.7,19.1h-3.2l-7.7-19.1h2.8c0.3,0,0.6,0.1,0.8,0.2c0.2,0.2,0.3,0.3,0.4,0.6l4.5,11.6
		c0.1,0.4,0.3,0.8,0.4,1.2c0.1,0.5,0.3,0.9,0.4,1.4c0.1-0.5,0.2-1,0.3-1.4c0.1-0.5,0.3-0.9,0.4-1.2l4.5-11.6
		c0.1-0.2,0.2-0.4,0.4-0.6c0.2-0.2,0.5-0.3,0.8-0.3H335.3z"/>
	<path fill="#5D5D5D" d="M354.2,548v5.3h6.7v2.7h-6.7v5.4h8.5v2.8h-12v-19.1h12v2.8H354.2z"/>
	<path fill="#5D5D5D" d="M411.6,559.7c0.2,0,0.4,0.1,0.5,0.2l1.4,1.5c-0.8,1-1.7,1.7-2.9,2.2c-1.1,0.5-2.5,0.8-4.1,0.8
		c-1.4,0-2.7-0.2-3.8-0.7c-1.1-0.5-2.1-1.2-2.9-2c-0.8-0.9-1.4-1.9-1.8-3.1c-0.4-1.2-0.6-2.5-0.6-3.9c0-1.4,0.2-2.7,0.7-3.9
		c0.5-1.2,1.1-2.2,1.9-3.1c0.8-0.9,1.8-1.5,3-2c1.2-0.5,2.4-0.7,3.8-0.7c1.4,0,2.6,0.2,3.7,0.7c1.1,0.5,2,1.1,2.7,1.8l-1.2,1.6
		c-0.1,0.1-0.2,0.2-0.3,0.3c-0.1,0.1-0.3,0.1-0.5,0.1c-0.1,0-0.3,0-0.4-0.1c-0.1-0.1-0.3-0.2-0.5-0.3c-0.2-0.1-0.4-0.2-0.6-0.4
		c-0.2-0.1-0.5-0.3-0.8-0.4c-0.3-0.1-0.6-0.2-1-0.3s-0.8-0.1-1.3-0.1c-0.9,0-1.6,0.2-2.3,0.5c-0.7,0.3-1.3,0.7-1.8,1.3
		c-0.5,0.6-0.9,1.3-1.2,2.1c-0.3,0.8-0.4,1.8-0.4,2.8c0,1.1,0.2,2,0.5,2.9c0.3,0.8,0.7,1.5,1.2,2.1c0.5,0.6,1.1,1,1.8,1.3
		c0.7,0.3,1.5,0.5,2.3,0.5c0.5,0,0.9,0,1.3-0.1c0.4-0.1,0.8-0.1,1.1-0.3c0.3-0.1,0.6-0.3,0.9-0.4c0.3-0.2,0.6-0.4,0.9-0.7
		c0.1-0.1,0.2-0.1,0.3-0.2C411.4,559.7,411.5,559.7,411.6,559.7z"/>
	<path fill="#5D5D5D" d="M444,564.2h-3.2c-0.6,0-1-0.2-1.3-0.7l-4-6.1c-0.1-0.2-0.3-0.4-0.5-0.5c-0.2-0.1-0.4-0.1-0.8-0.1h-1.5v7.4
		h-3.5v-19.1h5.8c1.3,0,2.4,0.1,3.3,0.4c0.9,0.3,1.7,0.6,2.3,1.1c0.6,0.5,1,1.1,1.3,1.7c0.3,0.7,0.4,1.4,0.4,2.2
		c0,0.6-0.1,1.2-0.3,1.8c-0.2,0.6-0.5,1.1-0.8,1.6c-0.4,0.5-0.8,0.9-1.3,1.2c-0.5,0.4-1.1,0.6-1.8,0.8c0.2,0.1,0.4,0.3,0.6,0.5
		c0.2,0.2,0.4,0.4,0.5,0.6L444,564.2z M434.9,554.2c0.7,0,1.2-0.1,1.7-0.3c0.5-0.2,0.9-0.4,1.2-0.7c0.3-0.3,0.6-0.6,0.7-1
		c0.2-0.4,0.2-0.9,0.2-1.3c0-1-0.3-1.7-1-2.2c-0.6-0.5-1.6-0.8-2.9-0.8h-2.3v6.3H434.9z"/>
	<path fill="#5D5D5D" d="M462.9,548v5.3h6.7v2.7h-6.7v5.4h8.5v2.8h-12v-19.1h12v2.8H462.9z"/>
	<path fill="#5D5D5D" d="M504.7,564.2H502c-0.3,0-0.6-0.1-0.8-0.2c-0.2-0.2-0.3-0.3-0.4-0.6l-1.4-3.9h-7.9l-1.4,3.9
		c-0.1,0.2-0.2,0.4-0.4,0.6c-0.2,0.2-0.5,0.3-0.8,0.3h-2.8l7.5-19.1h3.6L504.7,564.2z M498.5,557l-2.3-6.3c-0.1-0.3-0.2-0.6-0.4-1
		c-0.1-0.4-0.2-0.8-0.4-1.3c-0.1,0.4-0.2,0.9-0.4,1.3c-0.1,0.4-0.2,0.7-0.4,1l-2.3,6.3H498.5z"/>
	<path fill="#5D5D5D" d="M531.4,548h-5.7v16.2h-3.5V548h-5.7v-2.9h15V548z"/>
	<path fill="#5D5D5D" d="M550.5,564.2h-3.6v-19.1h3.6V564.2z"/>
	<path fill="#5D5D5D" d="M584.4,545.1l-7.7,19.1h-3.2l-7.7-19.1h2.8c0.3,0,0.6,0.1,0.8,0.2c0.2,0.2,0.3,0.3,0.4,0.6l4.5,11.6
		c0.1,0.4,0.3,0.8,0.4,1.2c0.1,0.5,0.3,0.9,0.4,1.4c0.1-0.5,0.2-1,0.3-1.4c0.1-0.5,0.3-0.9,0.4-1.2l4.5-11.6
		c0.1-0.2,0.2-0.4,0.4-0.6c0.2-0.2,0.5-0.3,0.8-0.3H584.4z"/>
	<path fill="#5D5D5D" d="M603.2,548v5.3h6.7v2.7h-6.7v5.4h8.5v2.8h-12v-19.1h12v2.8H603.2z"/>
</g>
</svg>
